<?xml version="1.0" encoding="iso-8859-1"?>
<!-- Generator: Adobe Illustrator 24.3.0, SVG Export Plug-In . SVG Version: 6.00 Build 0)  -->
<svg version="1.1" id="Calque_1" xmlns="http://www.w3.org/2000/svg" xmlns:xlink="http://www.w3.org/1999/xlink" x="0px" y="0px"
	 viewBox="0 0 58 231" style="enable-background:new 0 0 58 231;" xml:space="preserve">
<g>
	<g>
		<g>
			<path style="fill:#DEDEDE;" d="M2.182,74.867h10.237l6.641,50.08h0.184l6.641-50.08h9.315l-9.776,64.561H11.958L2.182,74.867z"/>
		</g>
		<g>
			<path style="fill:#DEDEDE;" d="M28.427,154.588c-2.522-2.797-3.782-6.809-3.782-12.035v-3.689h9.592v4.427
				c0,4.182,1.752,6.271,5.256,6.271c1.721,0,3.027-0.507,3.92-1.521c0.891-1.015,1.338-2.659,1.338-4.935
				c0-2.705-0.615-5.087-1.846-7.147c-1.23-2.06-3.504-4.534-6.824-7.425c-4.182-3.688-7.101-7.023-8.761-10.007
				c-1.66-2.981-2.49-6.348-2.49-10.099c0-5.103,1.292-9.053,3.873-11.851c2.583-2.797,6.332-4.197,11.251-4.197
				c4.857,0,8.531,1.399,11.021,4.197c2.49,2.798,3.736,6.811,3.736,12.036v2.675H45.12v-3.32c0-2.213-0.432-3.828-1.291-4.842
				c-0.863-1.014-2.121-1.521-3.781-1.521c-3.383,0-5.074,2.061-5.074,6.179c0,2.337,0.631,4.52,1.891,6.548
				c1.26,2.029,3.551,4.489,6.871,7.378c4.244,3.689,7.162,7.042,8.762,10.054c1.6,3.013,2.398,6.548,2.398,10.606
				c0,5.288-1.307,9.347-3.92,12.174c-2.613,2.829-6.41,4.242-11.391,4.242C34.667,158.784,30.946,157.387,28.427,154.588z"/>
		</g>
	</g>
	
		<line style="fill:none;stroke:#DEDEDE;stroke-linecap:round;stroke-miterlimit:10;" x1="46.221" y1="1.464" x2="10.896" y2="229.536"/>
</g>
<g>
</g>
<g>
</g>
<g>
</g>
<g>
</g>
<g>
</g>
<g>
</g>
</svg>
